<svg width="20" height="19" viewBox="0 0 20 19" fill="none" xmlns="http://www.w3.org/2000/svg">
<path d="M7.56527 11.0834C7.82772 11.0834 8.07943 10.9792 8.26501 10.7936C8.45059 10.608 8.55485 10.3563 8.55485 10.0938C8.55485 9.83138 8.45059 9.57967 8.26501 9.39409C8.07943 9.20851 7.82772 9.10425 7.56527 9.10425C7.30281 9.10425 7.05111 9.20851 6.86553 9.39409C6.67994 9.57967 6.57568 9.83138 6.57568 10.0938C6.57568 10.3563 6.67994 10.608 6.86553 10.7936C7.05111 10.9792 7.30281 11.0834 7.56527 11.0834ZM7.56527 13.8542C7.82772 13.8542 8.07943 13.75 8.26501 13.5644C8.45059 13.3788 8.55485 13.1271 8.55485 12.8647C8.55485 12.6022 8.45059 12.3505 8.26501 12.1649C8.07943 11.9793 7.82772 11.8751 7.56527 11.8751C7.30281 11.8751 7.05111 11.9793 6.86553 12.1649C6.67994 12.3505 6.57568 12.6022 6.57568 12.8647C6.57568 13.1271 6.67994 13.3788 6.86553 13.5644C7.05111 13.75 7.30281 13.8542 7.56527 13.8542ZM11.3257 10.0938C11.3257 10.3563 11.2214 10.608 11.0358 10.7936C10.8503 10.9792 10.5986 11.0834 10.3361 11.0834C10.0736 11.0834 9.82194 10.9792 9.63636 10.7936C9.45078 10.608 9.34652 10.3563 9.34652 10.0938C9.34652 9.83138 9.45078 9.57967 9.63636 9.39409C9.82194 9.20851 10.0736 9.10425 10.3361 9.10425C10.5986 9.10425 10.8503 9.20851 11.0358 9.39409C11.2214 9.57967 11.3257 9.83138 11.3257 10.0938ZM10.3361 13.8542C10.5986 13.8542 10.8503 13.75 11.0358 13.5644C11.2214 13.3788 11.3257 13.1271 11.3257 12.8647C11.3257 12.6022 11.2214 12.3505 11.0358 12.1649C10.8503 11.9793 10.5986 11.8751 10.3361 11.8751C10.0736 11.8751 9.82194 11.9793 9.63636 12.1649C9.45078 12.3505 9.34652 12.6022 9.34652 12.8647C9.34652 13.1271 9.45078 13.3788 9.63636 13.5644C9.82194 13.75 10.0736 13.8542 10.3361 13.8542ZM14.0965 10.0938C14.0965 10.3563 13.9923 10.608 13.8067 10.7936C13.6211 10.9792 13.3694 11.0834 13.1069 11.0834C12.8445 11.0834 12.5928 10.9792 12.4072 10.7936C12.2216 10.608 12.1174 10.3563 12.1174 10.0938C12.1174 9.83138 12.2216 9.57967 12.4072 9.39409C12.5928 9.20851 12.8445 9.10425 13.1069 9.10425C13.3694 9.10425 13.6211 9.20851 13.8067 9.39409C13.9923 9.57967 14.0965 9.83138 14.0965 10.0938Z" fill="black"/>
<path fill-rule="evenodd" clip-rule="evenodd" d="M7.16944 2.573C7.32691 2.573 7.47793 2.63555 7.58928 2.7469C7.70063 2.85825 7.76319 3.00928 7.76319 3.16675V3.7605H12.909V3.16675C12.909 3.00928 12.9716 2.85825 13.0829 2.7469C13.1943 2.63555 13.3453 2.573 13.5028 2.573C13.6602 2.573 13.8113 2.63555 13.9226 2.7469C14.034 2.85825 14.0965 3.00928 14.0965 3.16675V3.76683C14.2169 3.77 14.329 3.7758 14.433 3.78425C14.7338 3.808 15.0156 3.86183 15.2824 3.998C15.6922 4.20674 16.0253 4.53985 16.234 4.94958C16.3702 5.21637 16.424 5.49821 16.4478 5.79904C16.4715 6.088 16.4715 6.44029 16.4715 6.86383V12.928C16.4715 13.3515 16.4715 13.7038 16.4478 13.9928C16.424 14.2936 16.3702 14.5755 16.234 14.8423C16.0255 15.2519 15.6927 15.585 15.2832 15.7938C15.0156 15.93 14.7338 15.9838 14.433 16.0076C14.144 16.0313 13.7917 16.0313 13.369 16.0313H7.30402C6.88048 16.0313 6.52818 16.0313 6.23923 16.0076C5.93839 15.9838 5.65656 15.93 5.38977 15.7938C4.98028 15.5855 4.64719 15.253 4.43818 14.8438C4.30202 14.5763 4.24818 14.2944 4.22443 13.9936C4.20068 13.7046 4.20068 13.3523 4.20068 12.9296V6.86383C4.20068 6.44029 4.20068 6.088 4.22443 5.79904C4.24818 5.49821 4.30202 5.21637 4.43818 4.94958C4.64692 4.53985 4.98004 4.20674 5.38977 3.998C5.65656 3.86183 5.93839 3.808 6.23923 3.78425C6.3432 3.7758 6.45535 3.77 6.57569 3.76683V3.16675C6.57568 3.08878 6.59104 3.01157 6.62088 2.93953C6.65072 2.86749 6.69446 2.80204 6.74959 2.7469C6.80473 2.69177 6.87018 2.64803 6.94222 2.61819C7.01425 2.58836 7.09146 2.573 7.16944 2.573ZM6.57569 5.14592V4.95433C6.49563 4.9568 6.41564 4.96128 6.33581 4.96779C6.1086 4.986 6.00014 5.01925 5.92889 5.05567C5.74239 5.15059 5.59078 5.3022 5.49585 5.48871C5.45943 5.55996 5.42618 5.66842 5.40798 5.89562C5.38898 6.12996 5.38818 6.43396 5.38818 6.88758V7.323H15.284V6.88758C15.284 6.43475 15.284 6.12996 15.2642 5.89562C15.246 5.66842 15.2128 5.55996 15.1764 5.48871C15.0814 5.3022 14.9298 5.15059 14.7433 5.05567C14.6721 5.01925 14.5636 4.986 14.3356 4.96779C14.256 4.9613 14.1763 4.95681 14.0965 4.95433V5.14592C14.0965 5.30339 14.034 5.45441 13.9226 5.56576C13.8113 5.67711 13.6602 5.73967 13.5028 5.73967C13.3453 5.73967 13.1943 5.67711 13.0829 5.56576C12.9716 5.45441 12.909 5.30339 12.909 5.14592V4.948H7.76319V5.14592C7.76319 5.30339 7.70063 5.45441 7.58928 5.56576C7.47793 5.67711 7.32691 5.73967 7.16944 5.73967C7.01196 5.73967 6.86094 5.67711 6.74959 5.56576C6.63824 5.45441 6.57569 5.30339 6.57569 5.14592ZM15.284 8.11467H5.38818V12.9043C5.38818 13.3571 5.38818 13.6619 5.40798 13.8954C5.42618 14.1234 5.45943 14.2319 5.49585 14.3031C5.59085 14.49 5.74206 14.6412 5.92889 14.7362C6.00014 14.7726 6.1086 14.8058 6.33581 14.824C6.57014 14.843 6.87414 14.8438 7.32777 14.8438H13.3444C13.7973 14.8438 14.1021 14.8438 14.3356 14.824C14.5636 14.8058 14.6721 14.7726 14.7433 14.7362C14.9298 14.6412 15.0814 14.4896 15.1764 14.3031C15.2128 14.2319 15.246 14.1234 15.2642 13.8954C15.2832 13.6619 15.284 13.3571 15.284 12.9043V8.11467Z" fill="black"/>
<path fill-rule="evenodd" clip-rule="evenodd" d="M8.55469 6.1355C8.55469 5.97803 8.61724 5.827 8.72859 5.71565C8.83994 5.6043 8.99097 5.54175 9.14844 5.54175H11.5234C11.6809 5.54175 11.8319 5.6043 11.9433 5.71565C12.0546 5.827 12.1172 5.97803 12.1172 6.1355C12.1172 6.29297 12.0546 6.44399 11.9433 6.55534C11.8319 6.66669 11.6809 6.72925 11.5234 6.72925H9.14844C8.99097 6.72925 8.83994 6.66669 8.72859 6.55534C8.61724 6.44399 8.55469 6.29297 8.55469 6.1355Z" fill="black"/>
</svg>
